<svg fill="#000000" xmlns="http://www.w3.org/2000/svg"  viewBox="0 0 50 50" width="50px" height="50px"><path fill="none" stroke="#000000" stroke-miterlimit="10" stroke-width="2" d="M45,37H5c-1.1,0-2-0.9-2-2V5c0-1.1,0.9-2,2-2h40c1.1,0,2,0.9,2,2v30C47,36.1,46.1,37,45,37z"/><path fill="none" stroke="#000000" stroke-miterlimit="10" stroke-width="2" d="M7 7H43V33H7z"/><path fill="none" stroke="#000000" stroke-miterlimit="10" stroke-width="2" d="M20 12L12 20 20 28M30 12L38 20 30 28"/><path fill="none" stroke="#000000" stroke-linejoin="round" stroke-miterlimit="10" stroke-width="2" d="M20 41L10 41 5 47 45 47 40 41 30 41"/><path fill="none" stroke="#000000" stroke-miterlimit="10" stroke-width="2" d="M20 37H30V43H20z"/></svg>